<?xml version="1.0" encoding="utf-8"?>
<!-- Generator: Adobe Illustrator 22.1.0, SVG Export Plug-In . SVG Version: 6.00 Build 0)  -->
<svg version="1.1" id="Layer_1" xmlns="http://www.w3.org/2000/svg" xmlns:xlink="http://www.w3.org/1999/xlink" x="0px" y="0px"
	 viewBox="0 0 375 667" style="enable-background:new 0 0 375 667;" xml:space="preserve">
<style type="text/css">
	.st0{filter:url(#filter-3);}
	.st1{fill:url(#path-2_2_);}
	.st2{fill:#B31B1B;fill-opacity:0;}
	.st3{fill:#624F4F;fill-opacity:0.79;}
</style>
<filter  filterUnits="objectBoundingBox" height="176.4%" id="filter-3" width="176.4%" x="-32.6%" y="-32.6%">
	<feMorphology  in="SourceAlpha" operator="dilate" radius="7.5" result="shadowSpreadOuter1"></feMorphology>
	<feOffset  dx="10" dy="10" in="shadowSpreadOuter1" result="shadowOffsetOuter1"></feOffset>
	<feGaussianBlur  in="shadowOffsetOuter1" result="shadowBlurOuter1" stdDeviation="13.5"></feGaussianBlur>
	<feComposite  in="shadowBlurOuter1" in2="SourceAlpha" operator="out" result="shadowBlurOuter1"></feComposite>
	
		<feColorMatrix  in="shadowBlurOuter1" type="matrix" values="0 0 0 0 0.730973639   0 0 0 0 0.488108917   0 0 0 0 0.504299898  0 0 0 1 0">
		</feColorMatrix>
</filter>
<title>Home</title>
<desc>Created with Sketch.</desc>
<g id="Home">
	<g id="Oval">
		<g class="st0">
			<circle id="path-2_2_" cx="190" cy="250" r="89"/>
		</g>
		<g>
			
				<radialGradient id="path-2_2_" cx="-116.8371" cy="729.1517" r="0.3921" gradientTransform="matrix(178 0 0 -178 20987 130039)" gradientUnits="userSpaceOnUse">
				<stop  offset="0" style="stop-color:#CA7F84"/>
				<stop  offset="0.3995" style="stop-color:#DFB1B4"/>
				<stop  offset="1" style="stop-color:#FFFFFF"/>
			</radialGradient>
			<circle id="path-2_1_" class="st1" cx="190" cy="250" r="89"/>
		</g>
	</g>
	<g id="camera" transform="translate(137.000000, 197.000000)">
		<rect id="Rectangle-path" class="st2" width="106" height="106"/>
		<path id="Shape" class="st3" d="M91.6,26.7H77.3l-3.4-9.5c-0.5-1.3-1.7-2.2-3.2-2.2H38.3c-1.4,0-2.7,0.9-3.2,2.2l-3.4,9.5H17.4
			C12.8,26.7,9,30.4,9,35v47.6c0,4.6,3.8,8.4,8.4,8.4h74.1c4.7,0,8.4-3.7,8.4-8.4V35C100,30.4,96.2,26.7,91.6,26.7z M92.4,82.6
			c0,0.5-0.4,0.8-0.8,0.8H17.4c-0.5,0-0.8-0.4-0.8-0.8V35c0-0.5,0.4-0.8,0.8-0.8h19.7l1.8-5l2.4-6.7h26.4l2.4,6.7l1.8,5h19.7
			c0.5,0,0.8,0.4,0.8,0.8V82.6z M54.5,40.9c-9.3,0-16.9,7.5-16.9,16.7s7.5,16.7,16.9,16.7s16.9-7.5,16.9-16.7S63.8,40.9,54.5,40.9z
			 M54.5,67.6c-5.6,0-10.1-4.5-10.1-10s4.5-10,10.1-10s10.1,4.5,10.1,10S60.1,67.6,54.5,67.6z"/>
	</g>
</g>
</svg>
